P3
16 16
255
128 0 255 128 0 255 128 0 255 128 0 255 128 0 255 128 0 255 128 0 255 128 0 255 128 0 255 128 0 255 128 0 255 128 0 255 128 0 255 128 0 255 128 0 255 128 0 255 
128 0 255 128 0 255 128 0 255 128 0 255 0 0 0 128 0 255 128 0 255 128 0 255 128 0 255 128 0 255 0 0 0 0 0 0 0 0 0 0 0 0 128 0 255 128 0 255 
128 0 255 128 0 255 128 0 255 0 0 0 0 0 0 128 0 255 128 0 255 128 0 255 128 0 255 128 0 255 0 0 0 128 0 255 128 0 255 0 0 0 128 0 255 128 0 255 
128 0 255 128 0 255 0 0 0 128 0 255 0 0 0 128 0 255 128 0 255 128 0 255 128 0 255 128 0 255 0 0 0 128 0 255 128 0 255 0 0 0 128 0 255 128 0 255 
128 0 255 128 0 255 128 0 255 128 0 255 0 0 0 128 0 255 128 0 255 128 0 255 128 0 255 128 0 255 0 0 0 128 0 255 128 0 255 0 0 0 128 0 255 128 0 255 
128 0 255 128 0 255 128 0 255 128 0 255 0 0 0 128 0 255 128 0 255 128 0 255 128 0 255 128 0 255 0 0 0 128 0 255 128 0 255 0 0 0 128 0 255 128 0 255 
128 0 255 128 0 255 0 0 0 0 0 0 0 0 0 0 0 0 128 0 255 128 0 255 128 0 255 128 0 255 0 0 0 0 0 0 0 0 0 0 0 0 128 0 255 128 0 255 
128 0 255 128 0 255 128 0 255 128 0 255 128 0 255 128 0 255 128 0 255 128 0 255 128 0 255 128 0 255 128 0 255 128 0 255 128 0 255 128 0 255 128 0 255 128 0 255 
128 0 255 128 0 255 128 0 255 128 0 255 128 0 255 128 0 255 128 0 255 128 0 255 128 0 255 128 0 255 128 0 255 128 0 255 128 0 255 128 0 255 128 0 255 128 0 255 
128 0 255 128 0 255 128 0 255 0 0 0 0 0 0 128 0 255 128 0 255 128 0 255 128 0 255 128 0 255 128 0 255 128 0 255 0 0 0 0 0 0 128 0 255 128 0 255 
128 0 255 128 0 255 0 0 0 128 0 255 128 0 255 0 0 0 128 0 255 128 0 255 128 0 255 128 0 255 128 0 255 0 0 0 128 0 255 0 0 0 128 0 255 128 0 255 
128 0 255 128 0 255 128 0 255 128 0 255 128 0 255 0 0 0 128 0 255 128 0 255 128 0 255 128 0 255 0 0 0 128 0 255 128 0 255 0 0 0 128 0 255 128 0 255 
128 0 255 128 0 255 128 0 255 128 0 255 0 0 0 128 0 255 128 0 255 128 0 255 128 0 255 128 0 255 0 0 0 0 0 0 0 0 0 0 0 0 0 0 0 128 0 255 
128 0 255 128 0 255 128 0 255 0 0 0 128 0 255 128 0 255 128 0 255 128 0 255 128 0 255 128 0 255 128 0 255 128 0 255 128 0 255 0 0 0 128 0 255 128 0 255 
128 0 255 128 0 255 0 0 0 0 0 0 0 0 0 0 0 0 128 0 255 128 0 255 128 0 255 128 0 255 128 0 255 128 0 255 128 0 255 0 0 0 128 0 255 128 0 255 
128 0 255 128 0 255 128 0 255 128 0 255 128 0 255 128 0 255 128 0 255 128 0 255 128 0 255 128 0 255 128 0 255 128 0 255 128 0 255 128 0 255 128 0 255 128 0 255 
