P3
16 16
255
0 128 255 0 128 255 0 128 255 0 128 255 0 128 255 0 128 255 0 128 255 0 128 255 0 128 255 0 128 255 0 128 255 0 128 255 0 128 255 0 128 255 0 128 255 0 128 255 
0 128 255 0 128 255 0 128 255 0 0 0 0 0 0 0 128 255 0 128 255 0 128 255 0 128 255 0 128 255 0 0 0 0 0 0 0 0 0 0 0 0 0 128 255 0 128 255 
0 128 255 0 128 255 0 0 0 0 128 255 0 128 255 0 0 0 0 128 255 0 128 255 0 128 255 0 128 255 0 0 0 0 128 255 0 128 255 0 128 255 0 128 255 0 128 255 
0 128 255 0 128 255 0 128 255 0 128 255 0 128 255 0 0 0 0 128 255 0 128 255 0 128 255 0 128 255 0 0 0 0 128 255 0 128 255 0 128 255 0 128 255 0 128 255 
0 128 255 0 128 255 0 128 255 0 128 255 0 0 0 0 128 255 0 128 255 0 128 255 0 128 255 0 128 255 0 0 0 0 0 0 0 0 0 0 0 0 0 128 255 0 128 255 
0 128 255 0 128 255 0 128 255 0 0 0 0 128 255 0 128 255 0 128 255 0 128 255 0 128 255 0 128 255 0 128 255 0 128 255 0 128 255 0 0 0 0 128 255 0 128 255 
0 128 255 0 128 255 0 0 0 0 0 0 0 0 0 0 0 0 0 128 255 0 128 255 0 128 255 0 128 255 0 0 0 0 0 0 0 0 0 0 0 0 0 128 255 0 128 255 
0 128 255 0 128 255 0 128 255 0 128 255 0 128 255 0 128 255 0 128 255 0 128 255 0 128 255 0 128 255 0 128 255 0 128 255 0 128 255 0 128 255 0 128 255 0 128 255 
0 128 255 0 128 255 0 128 255 0 128 255 0 128 255 0 128 255 0 128 255 0 128 255 0 128 255 0 128 255 0 128 255 0 128 255 0 128 255 0 128 255 0 128 255 0 128 255 
0 128 255 0 128 255 0 0 0 0 0 0 0 0 0 0 0 0 0 128 255 0 128 255 0 128 255 0 128 255 0 128 255 0 128 255 0 128 255 0 128 255 0 128 255 0 128 255 
0 128 255 0 128 255 0 0 0 0 128 255 0 128 255 0 128 255 0 128 255 0 128 255 0 128 255 0 128 255 0 128 255 0 128 255 0 128 255 0 128 255 0 128 255 0 128 255 
0 128 255 0 128 255 0 0 0 0 128 255 0 128 255 0 128 255 0 128 255 0 128 255 0 128 255 0 128 255 0 128 255 0 128 255 0 128 255 0 128 255 0 128 255 0 128 255 
0 128 255 0 128 255 0 0 0 0 0 0 0 0 0 0 0 0 0 128 255 0 128 255 0 128 255 0 128 255 0 128 255 0 128 255 0 128 255 0 128 255 0 128 255 0 128 255 
0 128 255 0 128 255 0 0 0 0 128 255 0 128 255 0 0 0 0 128 255 0 128 255 0 128 255 0 128 255 0 128 255 0 128 255 0 128 255 0 128 255 0 128 255 0 128 255 
0 128 255 0 128 255 0 0 0 0 0 0 0 0 0 0 0 0 0 128 255 0 128 255 0 128 255 0 128 255 0 128 255 0 128 255 0 128 255 0 128 255 0 128 255 0 128 255 
0 128 255 0 128 255 0 128 255 0 128 255 0 128 255 0 128 255 0 128 255 0 128 255 0 128 255 0 128 255 0 128 255 0 128 255 0 128 255 0 128 255 0 128 255 0 128 255 
